<svg xmlns="http://www.w3.org/2000/svg" viewBox="0 0 24 24" fill="currentColor">
  <path d="M21.807 18.285L13.553.756a1.324 1.324 0 00-1.129-.754 1.32 1.32 0 00-1.206.626l-8.952 14.5a1.323 1.323 0 00.016 1.455l4.376 6.778a1.32 1.32 0 001.758.461l12.647-6.436a1.323 1.323 0 00.744-1.1 1.324 1.324 0 00-.569-1.155l-.955-.614 1.561-.847a1.325 1.325 0 00.571-1.769l-2.08-4.12a1.325 1.325 0 00-2.34 1.179l.893 2.321-1.174.638 2.34 1.553a1.32 1.32 0 01.569 1.1 1.32 1.32 0 01-.744 1.099L6.573 22.253a1.32 1.32 0 01-1.758-.461l-4.376-6.778a1.324 1.324 0 01-.016-1.455l8.952-14.5a1.32 1.32 0 011.206-.626 1.324 1.324 0 011.129.754l8.254 17.529a1.325 1.325 0 001.843.569z"/>
</svg> 