<svg xmlns="http://www.w3.org/2000/svg" viewBox="0 0 24 24" fill="currentColor">
  <path d="M11.5725 0c-.1763 0-.3098.0013-.3584.0067-.0516.0053-.2159.021-.3636.0328-3.4088.3073-6.6017 2.1463-8.624 4.9728C1.1004 6.584.3802 8.3666.1082 10.255c-.0962.659-.108.8537-.108 1.7474s.012 1.0884.108 1.7476c.652 4.506 3.8591 8.2919 8.2087 9.6945.7789.2511 1.6.4223 2.5337.5255.3636.04 1.9354.04 2.299 0 1.6117-.1783 2.9772-.577 4.3237-1.2643.2065-.1056.2464-.1337.2183-.1573-.0188-.0139-.8987-1.1938-1.9543-2.62l-1.919-2.592-2.4047-3.5583c-1.3231-1.9564-2.4117-3.556-2.4211-3.556-.0094-.0026-.0187 1.5787-.0235 3.509-.0067 3.3802-.0093 3.5162-.0516 3.596-.061.115-.108.1618-.2064.2134-.075.0374-.1408.0445-.495.0445h-.406l-.1078-.068a.4383.4383 0 01-.1572-.1712l-.0493-.1056.0053-4.703.0067-4.7054.0726-.0915c.0376-.0493.1408-.1177.2212-.1524.1196-.0524.1456-.0557.5396-.0557.4564 0 .5131.0067.6019.0676.0376.0266 1.0941 1.6132 2.3483 3.5316l2.7343 4.0772 1.3766 2.0587 1.3766 2.0587-.0288-.0861c-.5477-1.6132-1.3766-4.0772-1.866-5.5338-.6297-1.8792-1.3818-4.1294-1.6758-5.0162-.0962-.2936-.1016-.3228-.1016-.6832 0-.3604.0054-.3896.1016-.6832.0615-.1898.108-.2785.2064-.3985.075-.0935.1015-.1116.2332-.1712.1585-.0701.1879-.0767.5959-.0767.4067 0 .4375.0053.5959.0747.1147.0521.2108.1278.2723.2159.0494.0699 1.8197 5.344 2.0556 6.0936.0841.2669.161.4624.1739.4358.0128-.0266.0375-.1177.0546-.2001.0945-.4463 1.8725-5.587 1.9977-5.952.0615-.1797.1585-.3228.292-.4305.1147-.0906.1622-.1043.5338-.1043.2255 0 .4443.0107.5208.0213.0961.0147.212.0626.2956.1191.0726.0521.1756.1739.2236.2698.0615.1191.0655.1618.0655.5338 0 .374-.0027.4102-.0575.5472-.0374.0935-1.3818 4.1-1.7282 5.1368-.6483 1.9459-1.3497 4.0238-1.6517 4.8988l-.0561.1669.919 1.3818c.5208.784 1.4364 2.159 2.0363 3.0557l1.0886 1.6296.0147-.0266c.9565-1.8484 2.5869-3.4165 4.5043-4.3483.1408-.0686.2643-.1297.2723-.1376.0107-.0067-.0174-.0399-.0615-.0747-.2984-.2158-1.8484-2.4774-2.8263-4.1321-.0841-.1431-.1529-.2698-.1529-.2831 0-.0147.1275-.0241.2831-.0241.2984 0 .3878.0134.5046.0767.0841.0445.212.1431.2831.2185.0709.0754 1.0191 1.4686 2.1051 3.0957 1.0859 1.6269 1.9889 2.9772 2.0042 3.0002.0241.0373.0401.0266.108-.0721.7377-1.0859 1.3204-2.3496 1.6812-3.6486.1622-.5844.2906-1.2337.3507-1.7685.0339-.3046.0401-.4397.0401-1.0859 0-.6465-.0062-.7816-.0401-1.0859-.0601-.535-.1885-1.1845-.3507-1.7685-.5006-1.7941-1.4619-3.3783-2.8049-4.6371-.5315-.4991-1.2349-1.0164-1.8457-1.3578-2.299-1.2873-4.9354-1.7139-7.5355-1.2204zm5.9829 14.8139c.0841.1231-.0319.2936-.1809.2831-.0709-.0054-.108-.0373-.1622-.1376-.0401-.0721-.0747-.0054-.108-.0373-.1622-.1376-.0401-.0721-.0747-.1443-.0781-.1604-.0027-.0374.3305-.2936.3745-.2885.0147.0013.0335.0481.0467.1034z"/>
</svg> 