<svg xmlns="http://www.w3.org/2000/svg" viewBox="0 0 24 24" fill="currentColor">
  <path d="M12 13.5a1.5 1.5 0 1 1 0-3 1.5 1.5 0 0 1 0 3zm-.5-3a.5.5 0 1 0 1 0 .5.5 0 0 0-1 0zm.5 3a1.5 1.5 0 1 1 0-3 1.5 1.5 0 0 1 0 3zm7.8-.5c0-1.8-2.2-3.4-5.6-4.3.8-3.5.4-6.2-1.2-7.1-.4-.2-.8-.3-1.3-.3v1.2c.3 0 .5.1.7.1.8.5 1.2 2.2.9 4.4-.1.5-.2 1.1-.3 1.6-1.2-.3-2.4-.5-3.7-.7-1-1.1-1.7-2.1-2.5-3 2-1.9 3.8-2.9 5.1-2.9V2c-1.7 0-3.9 1.2-6.1 3.2C3.9 3.2 1.7 2 0 2v1.2c1.3 0 3.1 1 5.1 2.9-.8.9-1.5 1.9-2.5 3-1.3.1-2.6.4-3.7.7-.2-.6-.3-1.1-.4-1.6-.3-2.2.1-3.9.9-4.4.2-.1.4-.2.7-.2V2.3c-.5 0-.9.1-1.3.3C-2.4 3.5-2.8 6.2-2 9.7c-3.4.9-5.6 2.5-5.6 4.3 0 1.8 2.2 3.4 5.6 4.3-.8 3.5-.4 6.2 1.2 7.1.4.2.8.3 1.3.3 1.7 0 3.9-1.2 6.1-3.2 2.2 2 4.4 3.2 6.1 3.2.5 0 .9-.1 1.3-.3 1.6-.9 2-3.6 1.2-7.1 3.4-.9 5.6-2.5 5.6-4.3zm-7-2.7c-.2.7-.4 1.4-.7 2.1-.2-.4-.4-.9-.7-1.3-.2-.4-.5-.9-.7-1.3.7.1 1.4.3 2.1.5zm-2.3 5.7c-.4.7-.8 1.4-1.3 2-.8.1-1.6.1-2.4.1-.8 0-1.6 0-2.4-.1-.4-.6-.9-1.3-1.3-2-.4-.7-.7-1.4-1-2 .3-.7.6-1.3 1-2 .4-.7.8-1.4 1.3-2 .8-.1 1.6-.1 2.4-.1.8 0 1.6 0 2.4.1.4.6.9 1.3 1.3 2 .4.7.7 1.4 1 2-.3.7-.6 1.3-1 2zM9.8 17c.2.4.5.9.7 1.3-.7-.2-1.4-.3-2.1-.5.2-.7.4-1.4.7-2.1.2.4.4.8.7 1.3zm-4.3-7.6c-.2.4-.5.9-.7 1.3-.2.7-.4 1.4-.7 2.1-.7-.2-1.4-.4-2.1-.5.2-.4.4-.9.7-1.3.2-.4.5-.9.7-1.3.7.1 1.4.2 2.1.4zm-2.1 5.4c-.7.2-1.4.4-2 .6-1.6-.7-2.6-1.5-2.6-2.2 0-.7 1-1.6 2.6-2.2.6.2 1.3.4 2 .6-.2.7-.4 1.4-.5 2.1.1.7.3 1.4.5 2.1zm4.8 4c-1.1 1-2.1 1.7-3 2.2-.2.1-.4.1-.7.1-.8-.5-1.2-2.2-.9-4.4.1-.5.2-1.1.3-1.6 1.2.3 2.4.5 3.7.7.8.9 1.7 1.9 2.5 3-1 .9-1.3 0-1.9 0zm7.6-9.4c1.6.7 2.6 1.5 2.6 2.2 0 .7-1 1.6-2.6 2.2-.6-.2-1.3-.4-2-.6.2-.7.4-1.4.5-2.1-.1-.7-.3-1.4-.5-2.1.7-.2 1.4-.4 2-.6z"/>
</svg> 