<svg xmlns="http://www.w3.org/2000/svg" viewBox="0 0 24 24" fill="currentColor">
  <path d="M0 12v12h24V0H0v12zm19.341-.956c.61.152 1.074.423 1.501.865.221.236.549.666.575.77.008.03-1.036.73-1.668 1.123-.023.015-.115-.084-.217-.236-.31-.45-.633-.644-1.128-.678-.728-.05-1.196.331-1.192.967a.88.88 0 0 0 .102.45c.16.331.458.53 1.39.933 1.719.74 2.454 1.227 2.911 1.92.51.773.625 2.008.278 2.926-.38.998-1.325 1.676-2.655 1.9-.411.073-1.386.062-1.828-.018-.964-.172-1.878-.648-2.442-1.273-.221-.243-.652-.88-.625-.925.011-.016.11-.077.22-.141.108-.061.511-.294.892-.515l.69-.4.145.214c.202.308.643.731.91.872.766.404 1.817.347 2.335-.118.221-.198.314-.457.314-.87 0-.334-.037-.432-.198-.663-.14-.197-.578-.497-1.461-.985-1.598-.892-2.28-1.44-2.654-2.13-.232-.422-.268-.666-.268-1.336 0-.668.036-.912.268-1.343.41-.754 1.249-1.278 2.304-1.431.459-.068 1.523-.04 1.944.051zm-5.679 1.633V13.9h-2.54v7.668H8.778V13.9H6.24v-1.19c0-.656.011-1.214.026-1.239.011-.03 2.625-.037 5.806-.03l5.779.007v2.229h-.001z"/>
</svg> 